<svg xmlns="http://www.w3.org/2000/svg" viewBox="0 0 612.001 612.001">
  <defs>
    <linearGradient id="a" gradientTransform="rotate(90 .5 .5)">
      <stop offset="5%" stop-color="#67B26F"/>
      <stop offset="95%" stop-color="#4ca2cd"/>
    </linearGradient>
  </defs>
  <path fill="url('#a')" d="M581.515 552.147h-35.548v-74.646h35.548c16.514 0 29.912-13.387 29.912-29.9s-13.4-29.9-29.912-29.9H461.681c8.429-6.377 13.978-16.39 13.978-27.752v-15.343c58.051-28.426 94.836-86.766 94.836-152.184 0-93.569-76.133-169.689-169.689-169.689H270.137C228.007 8.265 197.213 1.062 193.688.372c-5.839-1.142-11.914.372-16.526 4.16-4.614 3.789-7.272 9.435-7.272 15.398v61.494c-22.862 15.355-41.896 36.304-54.994 60.474h-11.61c-28.193 0-61.824 13.978-61.824 80.541s33.631 80.541 61.824 80.541h11.61c16.789 30.988 43.162 56.343 74.756 71.892v15.108c0 11.363 5.536 21.375 13.966 27.752H97.653C44.107 417.732.53 461.309.53 514.869c0 53.561 43.575 97.133 97.123 97.133h483.904c16.515 0 29.913-13.387 29.913-29.9-.041-16.568-13.428-29.955-29.955-29.955zm-399.369-3.139c0 2.644-1.516 5.067-3.911 6.212-2.383 1.143-5.22.826-7.285-.841l-31.347-25.094-31.333 25.094c-2.96 2.094-6.336 1.296-7.285.841-2.383-1.143-3.911-3.554-3.911-6.212v-71.712h85.056v71.712h.016zm124.144-131.32c7.905-5.977 13.305-15.107 13.952-25.602h24.805c.646 10.494 6.046 19.625 13.937 25.602H306.29zm145.007-247.433c-29.005-18.401-70.9-29.376-114.984-30.078-44.072-.702-86.311 8.896-115.88 26.373-7.96 4.71-18.289 2.052-23.013-5.937-4.71-7.989-2.052-18.289 5.937-23.013 35.284-20.81 82.689-31.842 133.508-31.016 50.82.812 97.853 13.36 132.435 35.284 7.836 4.986 10.163 15.357 5.191 23.207-3.264 5.123-8.826 7.891-14.474 7.795-3.004-.055-6.018-.893-8.72-2.615z"/>
</svg>
